<?xml version="1.0" encoding="UTF-8" standalone="no"?>
<!DOCTYPE svg PUBLIC "-//W3C//DTD SVG 1.1//EN" "http://www.w3.org/Graphics/SVG/1.1/DTD/svg11.dtd">
<svg version="1.1" xmlns="http://www.w3.org/2000/svg" xmlns:xlink="http://www.w3.org/1999/xlink" preserveAspectRatio="xMidYMid meet" viewBox="0 0 40 40" width="40" height="40"><defs><path d="M5.78 13.76C5.77 16.76 9.99 23.55 10.7 26.18C11.31 28.43 9.66 31.14 10.11 31.26C10.53 31.52 14.46 27.54 14.61 25.85C14.81 23.15 10.02 15.27 9.64 13.23C9.2 10.86 9.99 8.78 9.67 8.73C9.67 8.73 9.67 8.73 9.67 8.73L9.67 8.73C7.08 10.62 5.78 12.3 5.78 13.76Z" id="d1EwiVQ4dn"></path><path d="M14.62 12.05C14.61 15.87 19.98 24.53 20.89 27.88C21.66 30.75 19.57 34.2 20.14 34.36C20.67 34.69 25.68 29.62 25.88 27.46C26.13 24.01 20.02 13.97 19.54 11.37C18.97 8.35 19.98 5.7 19.58 5.63C19.58 5.63 19.58 5.63 19.58 5.63L19.58 5.63C16.27 8.04 14.62 10.18 14.62 12.05Z" id="aznQYj1KY"></path><path d="M24.98 13.76C24.98 16.76 29.19 23.55 29.9 26.18C30.51 28.43 28.86 31.14 29.31 31.26C29.73 31.52 33.66 27.54 33.81 25.85C34.01 23.15 29.22 15.27 28.84 13.23C28.4 10.86 29.19 8.78 28.87 8.73C28.87 8.73 28.87 8.73 28.87 8.73C26.28 10.62 24.98 12.3 24.98 13.76Z" id="bydRZDT3I"></path></defs><g><g><g><use xlink:href="#d1EwiVQ4dn" opacity="1" fill="#010812" fill-opacity="1"></use><g><use xlink:href="#d1EwiVQ4dn" opacity="1" fill-opacity="0" stroke="#000000" stroke-width="1" stroke-opacity="0"></use></g></g><g><use xlink:href="#aznQYj1KY" opacity="1" fill="#093b68" fill-opacity="1"></use><g><use xlink:href="#aznQYj1KY" opacity="1" fill-opacity="0" stroke="#000000" stroke-width="1" stroke-opacity="0"></use></g></g><g><use xlink:href="#bydRZDT3I" opacity="1" fill="#010812" fill-opacity="1"></use><g><use xlink:href="#bydRZDT3I" opacity="1" fill-opacity="0" stroke="#000000" stroke-width="1" stroke-opacity="0"></use></g></g></g></g></svg>