<?xml version="1.0" encoding="UTF-8" standalone="no"?>
<!DOCTYPE svg PUBLIC "-//W3C//DTD SVG 1.1//EN" "http://www.w3.org/Graphics/SVG/1.1/DTD/svg11.dtd">
<svg version="1.1" xmlns="http://www.w3.org/2000/svg" xmlns:xlink="http://www.w3.org/1999/xlink" preserveAspectRatio="xMidYMid meet" viewBox="0 0 150 40" width="150" height="40"><defs><path d="M2.39 14.89C2.39 17.89 6.6 24.68 7.31 27.31C7.92 29.56 6.27 32.26 6.73 32.39C7.14 32.65 11.07 28.67 11.22 26.97C11.42 24.27 6.63 16.39 6.25 14.36C5.81 11.99 6.6 9.91 6.28 9.85C6.28 9.85 6.28 9.85 6.28 9.85L6.28 9.85C3.69 11.75 2.39 13.43 2.39 14.89Z" id="e3BX4bDwXq"></path><path d="M10.32 13.17C10.32 17 15.69 25.66 16.59 29.01C17.37 31.88 15.28 35.33 15.85 35.48C16.38 35.82 21.39 30.75 21.58 28.58C21.84 25.14 15.73 15.09 15.25 12.49C14.68 9.47 15.69 6.82 15.29 6.75C15.29 6.75 15.29 6.75 15.29 6.75L15.29 6.75C11.98 9.17 10.32 11.31 10.32 13.17Z" id="a33gpIToqH"></path><path d="M20.69 14.89C20.68 17.89 24.9 24.68 25.61 27.31C26.21 29.56 24.57 32.26 25.02 32.39C25.44 32.65 29.37 28.67 29.52 26.97C29.71 24.27 24.93 16.39 24.55 14.36C24.11 11.99 24.9 9.91 24.58 9.85C24.58 9.85 24.58 9.85 24.58 9.85C21.98 11.75 20.69 13.43 20.69 14.89Z" id="d1zhAHVhNA"></path><path d="M45.01 19.81L44.61 19.59L43.98 19.49L43.29 19.33L42.82 19.33L42.26 19.33L41.67 19.33L41.26 19.33L40.89 19.59L40.54 19.74L40.32 20.21L40.42 20.74L40.73 21.13L41.36 21.52L42.42 21.93L43.54 22.31L44.61 22.81L45.14 23.08L45.48 23.43L45.92 23.77L46.23 24.21L46.51 24.65L46.67 25.08L46.76 25.56L46.76 26.21L46.67 26.99L46.36 27.77L46.04 28.49L45.48 28.9L44.7 29.43L44.07 29.74L43.29 29.87L42.42 29.99L41.61 29.99L40.73 29.99L40.23 29.99L39.48 29.87L38.79 29.74L38.07 29.52L37.32 29.27L36.79 29.02L37.2 26.37L38.07 26.71L38.64 26.86L39.11 27.11L39.64 27.24L40.32 27.31L41.04 27.31L41.67 27.31L42.2 27.24L42.57 27.11L42.95 26.86L43.14 26.52L43.14 26.08L42.95 25.74L42.7 25.39L42.2 25.08L41.61 24.8L40.54 24.46L39.48 24.08L38.64 23.64L38.2 23.33L37.79 23.08L37.57 22.64L37.32 22.24L37.11 21.86L37.01 21.52L36.92 21.13L36.92 20.74L36.79 20.21L36.92 19.74L37.01 19.33L37.2 18.86L37.48 18.39L37.79 17.99L38.2 17.71L38.73 17.36L39.32 17.11L40.01 16.86L40.67 16.71L41.14 16.71L41.92 16.58L42.7 16.58L43.82 16.71L44.54 16.86L45.23 17.02L46.04 17.36L45.64 20.21L45.01 19.81Z" id="a2wjm7CwI"></path><path d="M54.12 19.17L54.12 21.98L54.12 23.29L54.12 25.45L54.25 26.3L54.43 26.95L54.87 27.17L55.43 27.3L55.96 27.17L56.59 27.17L57.21 26.95L57.71 26.8L58.18 28.8L57.43 29.17L56.96 29.55L56.37 29.7L55.68 29.86L55.06 29.99L54.43 29.99L53.78 29.99L53.03 29.99L52.46 29.86L51.81 29.55L51.43 29.17L51.06 28.7L50.78 28.3L50.62 27.64L50.5 26.8L50.5 25.98L50.5 19.17L48.9 19.17L48.9 17.17L49.84 16.86L50.34 16.67L50.78 16.33L51.06 15.83L51.43 14.55L51.93 13.45L54.12 13.45L54.12 16.67L57.71 16.67L57.71 19.17L54.12 19.17Z" id="bRkoLqlJ"></path><path d="M70.37 29.14L69.68 29.42L68.77 29.73L67.9 29.92L67.06 29.99L65.96 29.99L65.15 29.99L64.46 29.92L63.71 29.73L62.68 29.27L61.99 28.73L61.34 28.14L60.81 27.55L60.37 26.45L59.96 25.48L59.81 24.55L59.81 23.55L59.81 22.42L59.96 21.42L60.21 20.58L60.71 19.52L61.21 18.8L61.9 18.05L62.56 17.61L63.09 17.23L63.62 16.98L64.68 16.67L65.49 16.58L66.49 16.67L67.06 16.67L67.99 16.83L68.77 17.08L69.52 17.42L70.09 17.86L70.59 18.45L70.99 19.11L71.24 19.89L71.52 21.13L71.52 22.42L71.4 24.05L66.71 24.05L63.46 24.05L63.62 25.27L64.24 26.27L65.15 26.95L66.4 27.23L67.81 27.23L69.4 26.95L70.49 26.61L71.12 28.73L70.37 29.14Z" id="d2Bng06ooP"></path><path d="M84.33 29.14L83.64 29.42L82.74 29.73L81.86 29.92L81.02 29.99L79.92 29.99L79.11 29.99L78.42 29.92L77.67 29.73L76.64 29.27L75.95 28.73L75.3 28.14L74.77 27.55L74.33 26.45L73.92 25.48L73.77 24.55L73.77 23.55L73.77 22.42L73.92 21.42L74.17 20.58L74.67 19.52L75.17 18.8L75.86 18.05L76.52 17.61L77.05 17.23L77.58 16.98L78.64 16.67L79.45 16.58L80.45 16.67L81.02 16.67L81.95 16.83L82.74 17.08L83.49 17.42L84.05 17.86L84.55 18.45L84.95 19.11L85.2 19.89L85.49 21.13L85.49 22.42L85.36 24.05L80.67 24.05L77.42 24.05L77.58 25.27L78.2 26.27L79.11 26.95L80.36 27.23L81.77 27.23L83.36 26.95L84.45 26.61L85.08 28.73L84.33 29.14Z" id="ciU9cxSFz"></path><path d="M92.66 17.73L93.34 17.42L94.09 17.02L94.75 16.77L95.37 16.67L96.03 16.58L96.75 16.58L97.41 16.67L98.03 16.77L98.47 17.02L98.97 17.27L99.44 17.73L99.84 18.17L100.66 17.58L101.59 17.14L102.37 16.92L102.97 16.77L103.78 16.67L104.53 16.58L105.25 16.67L105.81 16.77L106.47 17.02L107.03 17.27L107.56 17.73L107.97 18.3L108.34 19.17L108.56 20.11L108.69 21.13L108.69 22.61L108.69 24.02L108.69 25.3L108.69 26.67L108.69 28.36L108.69 29.99L106.78 29.99L105 29.99L105 27.45L105 26.14L105 25.11L105 23.73L105 22.7L105 21.39L104.91 20.86L104.72 20.39L104.44 20.11L104.16 19.89L103.78 19.77L103.37 19.77L102.84 19.77L102.28 19.89L101.41 20.11L100.84 20.39L100.41 20.67L100.5 21.33L100.5 21.98L100.5 23.73L100.5 26.14L100.5 27.45L100.5 29.99L98.22 29.99L96.84 29.99L96.84 27.45L96.84 25.11L96.84 24.02L96.84 22.61L96.84 21.61L96.75 21.2L96.62 20.86L96.44 20.39L96.19 20L95.69 19.89L95.12 19.77L94.66 19.77L93.94 19.89L93.34 20.11L92.75 20.39L92.28 20.86L92.28 29.99L90.94 29.99L88.62 29.99L88.62 22.7L88.62 16.67L92 16.67L92 18.17L92.66 17.73Z" id="c1AXlArzdi"></path><path d="M114.75 12.13L116.69 12.13L119.53 12.13L120.87 12.26L122.15 12.54L123.53 13.19L124.53 14.07L125.19 15.19L125.31 16.51L125.19 17.57L124.65 18.97L123.94 19.79L122.81 20.41L123.94 20.76L124.65 21.22L125.31 21.72L125.78 22.44L126.19 23.35L126.28 24.44L126.19 25.44L125.78 26.94L125.31 27.79L124.65 28.51L123.94 28.97L122.81 29.51L120.87 29.91L119.09 29.99L112.75 29.99L112.75 19.26L112.75 12.13L114.75 12.13Z" id="f4RevOlHw"></path><path d="M129.46 22.44L129.46 16.6L129.46 12.13L134.01 12.13L136.29 12.13L137.11 12.22L137.86 12.32L138.67 12.51L139.58 12.79L140.23 13.1L140.79 13.54L141.26 14.01L141.67 14.51L141.95 15.07L142.23 15.94L142.33 16.76L142.33 17.66L142.23 18.66L142.11 19.38L141.95 20L141.67 20.6L141.26 21.19L140.79 21.72L140.33 22.07L139.67 22.35L139.33 22.6L139.67 22.76L140.01 23.13L140.33 23.72L140.79 24.51L141.26 25.51L141.67 26.57L142.11 27.6L142.67 28.69L143.17 29.54L143.42 29.99L140.67 29.99L139.21 29.99L138.52 28.69L138.05 27.35L137.58 25.94L137.11 24.69L136.74 24.04L136.46 23.57L136.02 23.26L135.4 23.26L133.15 23.26L133.15 29.99L129.46 29.99L129.46 22.44Z" id="d1hyJgZqb2"></path><path d="M77.61 21.25L77.81 20.69L78.06 20.17L78.32 19.88L78.59 19.63L78.89 19.48L79.29 19.31L79.67 19.27L80.07 19.27L80.39 19.27L80.76 19.31L81.03 19.42L81.32 19.56L81.57 19.75L81.76 20.05L81.9 20.45L82.03 20.91L82.07 21.25L82.07 21.56L82.03 22L77.47 22L77.61 21.25Z" id="g23TQ4NTDG"></path><path d="M63.63 21.44L63.8 20.81L64.04 20.31L64.3 19.88L64.69 19.59L65.18 19.34L65.72 19.23L66.24 19.23L66.74 19.3L67.16 19.44L67.54 19.72L67.8 20.08L67.97 20.45L68.07 20.81L68.14 21.13L68.14 21.56L68.07 21.98L65.05 21.98L63.54 21.98L63.63 21.44Z" id="b4flLBC8Hd"></path><path d="M116.97 19.55L117.67 19.55L118.45 19.55L119.43 19.51L120.2 19.36L120.81 19.08L121.26 18.71L121.51 18.29L121.73 17.68L121.78 17.05L121.73 16.51L121.57 15.99L121.22 15.52L120.67 15.21L119.61 14.93L118.62 14.88L117.2 14.88L116.68 14.88L116.48 15.04L116.48 19.44L116.97 19.55Z" id="b1JRxmuO2c"></path><path d="M117.37 22.07L118.34 22.07L119.09 22.07L119.81 22.12L120.39 22.17L120.87 22.29L121.34 22.51L121.7 22.74L122 23.04L122.25 23.34L122.37 23.88L122.5 24.48L122.5 25.06L122.37 25.6L122.25 26.06L122.04 26.43L121.75 26.82L121.18 27.12L120.61 27.34L119.81 27.43L119.04 27.49L118.17 27.49L117.29 27.43L116.75 27.34L116.47 27.21L116.47 22.17L117.37 22.07Z" id="c2ysEBDQUv"></path><path d="M133.88 14.95L134.94 14.88L136.16 14.88L136.97 15.05L137.69 15.3L138.25 15.86L138.53 16.48L138.66 17.22L138.66 18.11L138.44 18.92L138.13 19.55L137.69 20L136.81 20.48L135.69 20.67L133.88 20.67L133.19 20.48L133.19 15.2L133.88 14.95Z" id="kwmaIm0So"></path></defs><g><g><g><use xlink:href="#e3BX4bDwXq" opacity="1" fill="#010812" fill-opacity="1"></use><g><use xlink:href="#e3BX4bDwXq" opacity="1" fill-opacity="0" stroke="#000000" stroke-width="1" stroke-opacity="0"></use></g></g><g><use xlink:href="#a33gpIToqH" opacity="1" fill="#093b68" fill-opacity="1"></use><g><use xlink:href="#a33gpIToqH" opacity="1" fill-opacity="0" stroke="#000000" stroke-width="1" stroke-opacity="0"></use></g></g><g><use xlink:href="#d1zhAHVhNA" opacity="1" fill="#010812" fill-opacity="1"></use><g><use xlink:href="#d1zhAHVhNA" opacity="1" fill-opacity="0" stroke="#000000" stroke-width="1" stroke-opacity="0"></use></g></g><g><use xlink:href="#a2wjm7CwI" opacity="1" fill="#000000" fill-opacity="0"></use><g><use xlink:href="#a2wjm7CwI" opacity="1" fill-opacity="0" stroke="#632d2f" stroke-width="0" stroke-opacity="1"></use></g></g><g><use xlink:href="#bRkoLqlJ" opacity="1" fill="#000000" fill-opacity="0"></use><g><use xlink:href="#bRkoLqlJ" opacity="1" fill-opacity="0" stroke="#632d2f" stroke-width="0" stroke-opacity="1"></use></g></g><g><use xlink:href="#d2Bng06ooP" opacity="1" fill="#000000" fill-opacity="0"></use><g><use xlink:href="#d2Bng06ooP" opacity="1" fill-opacity="0" stroke="#000000" stroke-width="0" stroke-opacity="0"></use></g></g><g><use xlink:href="#ciU9cxSFz" opacity="1" fill="#000000" fill-opacity="0"></use><g><use xlink:href="#ciU9cxSFz" opacity="1" fill-opacity="0" stroke="#632d2f" stroke-width="0" stroke-opacity="1"></use></g></g><g><use xlink:href="#c1AXlArzdi" opacity="1" fill="#000000" fill-opacity="0"></use><g><use xlink:href="#c1AXlArzdi" opacity="1" fill-opacity="0" stroke="#632d2f" stroke-width="0" stroke-opacity="1"></use></g></g><g><use xlink:href="#f4RevOlHw" opacity="1" fill="#000000" fill-opacity="0"></use><g><use xlink:href="#f4RevOlHw" opacity="1" fill-opacity="0" stroke="#000000" stroke-width="0" stroke-opacity="0"></use></g></g><g><use xlink:href="#d1hyJgZqb2" opacity="1" fill="#000000" fill-opacity="0"></use><g><use xlink:href="#d1hyJgZqb2" opacity="1" fill-opacity="0" stroke="#632d2f" stroke-width="0" stroke-opacity="1"></use></g></g><g><use xlink:href="#g23TQ4NTDG" opacity="1" fill="#000000" fill-opacity="0"></use><g><use xlink:href="#g23TQ4NTDG" opacity="1" fill-opacity="0" stroke="#632d2f" stroke-width="0" stroke-opacity="0"></use></g></g><g><use xlink:href="#b4flLBC8Hd" opacity="1" fill="#ffffff" fill-opacity="0"></use><g><use xlink:href="#b4flLBC8Hd" opacity="1" fill-opacity="0" stroke="#ffffff" stroke-width="0" stroke-opacity="0"></use></g></g><g><use xlink:href="#b1JRxmuO2c" opacity="1" fill="#000000" fill-opacity="0"></use><g><use xlink:href="#b1JRxmuO2c" opacity="1" fill-opacity="0" stroke="#4b1618" stroke-width="0" stroke-opacity="0"></use></g></g><g><use xlink:href="#c2ysEBDQUv" opacity="1" fill="#000000" fill-opacity="0"></use><g><use xlink:href="#c2ysEBDQUv" opacity="1" fill-opacity="0" stroke="#632d2f" stroke-width="0" stroke-opacity="0"></use></g></g><g><use xlink:href="#kwmaIm0So" opacity="1" fill="#000000" fill-opacity="0"></use><g><use xlink:href="#kwmaIm0So" opacity="1" fill-opacity="0" stroke="#632d2f" stroke-width="0" stroke-opacity="0"></use></g></g></g></g></svg>